<svg width="920" height="520" viewBox="0 0 920 520" xmlns="http://www.w3.org/2000/svg">
  <!-- Solid Background: Dark Graphite/Rich Black -->
  <rect x="0" y="0" width="920" height="520" fill="#0c0a09" rx="12" />

  <!-- Interface -->
  <!-- Nexus SDK -->
  <rect x="40" y="60" width="180" height="50" rx="8" ry="8" fill="#1c1917" stroke="#fb7185" stroke-width="2" />
  <text x="130" y="90" text-anchor="middle" font-family="Inter, system-ui, sans-serif" font-size="13" font-weight="600" fill="#fecdd3">Nexus SDK</text>

  <!-- FastAPI Backend -->
  <rect x="40" y="130" width="180" height="50" rx="8" ry="8" fill="#1c1917" stroke="#fb7185" stroke-width="2" />
  <text x="130" y="160" text-anchor="middle" font-family="Inter, system-ui, sans-serif" font-size="13" font-weight="600" fill="#fecdd3">FastAPI Backend</text>

  <!-- Core -->
  <!-- DAG Engine -->
  <rect x="320" y="90" width="200" height="60" rx="8" ry="8" fill="#1c1917" stroke="#e11d48" stroke-width="2" />
  <text x="420" y="125" text-anchor="middle" font-family="Inter, system-ui, sans-serif" font-size="13" font-weight="600" fill="#ffe4e6">DAG Engine</text>

  <!-- Guardrails -->
  <rect x="320" y="170" width="200" height="60" rx="8" ry="8" fill="#1c1917" stroke="#e11d48" stroke-width="2" />
  <text x="420" y="205" text-anchor="middle" font-family="Inter, system-ui, sans-serif" font-size="13" font-weight="600" fill="#ffe4e6">Guardrails &amp; Scoring</text>

  <!-- Runtime -->
  <!-- OpenVINO -->
  <rect x="640" y="60" width="220" height="50" rx="8" ry="8" fill="#1c1917" stroke="#be123c" stroke-width="2" />
  <text x="750" y="90" text-anchor="middle" font-family="Inter, system-ui, sans-serif" font-size="13" font-weight="600" fill="#fecdd3">OpenVINO LLM</text>

  <!-- Agent Tools -->
  <rect x="640" y="130" width="220" height="50" rx="8" ry="8" fill="#1c1917" stroke="#be123c" stroke-width="2" />
  <text x="750" y="160" text-anchor="middle" font-family="Inter, system-ui, sans-serif" font-size="13" font-weight="600" fill="#fecdd3">Agent Tools</text>

  <!-- Kafka -->
  <rect x="640" y="200" width="220" height="50" rx="8" ry="8" fill="#1c1917" stroke="#be123c" stroke-width="2" />
  <text x="750" y="230" text-anchor="middle" font-family="Inter, system-ui, sans-serif" font-size="13" font-weight="600" fill="#fecdd3">Kafka Messaging</text>

  <!-- Storage -->
  <!-- Vector Memory -->
  <rect x="320" y="300" width="200" height="50" rx="8" ry="8" fill="#1c1917" stroke="#64748b" stroke-width="2" />
  <text x="420" y="330" text-anchor="middle" font-family="Inter, system-ui, sans-serif" font-size="13" font-weight="600" fill="#e2e8f0">Vector Memory</text>

  <!-- Monitoring -->
  <!-- Live Stream -->
  <rect x="640" y="300" width="220" height="50" rx="8" ry="8" fill="#1c1917" stroke="#475569" stroke-width="2" />
  <text x="750" y="330" text-anchor="middle" font-family="Inter, system-ui, sans-serif" font-size="13" font-weight="600" fill="#cbd5e1">Live Event Stream</text>

  <!-- Prometheus -->
  <rect x="640" y="370" width="220" height="50" rx="8" ry="8" fill="#1c1917" stroke="#475569" stroke-width="2" />
  <text x="750" y="400" text-anchor="middle" font-family="Inter, system-ui, sans-serif" font-size="13" font-weight="600" fill="#cbd5e1">Prometheus / Grafana</text>

  <!-- Flows -->
  <style>
    .flow {
      animation: flow 1.6s linear infinite;
    }
    @keyframes flow {
      to { stroke-dashoffset: -24; }
    }
  </style>

  <g fill="none" stroke="#94a3b8" stroke-width="2" stroke-dasharray="6 6" class="flow">
    <path d="M220 85 H320" />
    <path d="M220 155 H320" />
    <path d="M420 150 V170" />
    <path d="M520 120 H640" />
    <path d="M520 200 H640" />
    <path d="M750 250 V300" />
    <path d="M520 230 V300" />
  </g>
</svg>
