<svg width="920" height="520" viewBox="0 0 920 520" xmlns="http://www.w3.org/2000/svg">
  <!-- Solid Background: Dark Graphite/Rich Black -->
  <rect x="0" y="0" width="920" height="520" fill="#0c0a09" rx="12" />

  <defs>
    <style>
      @keyframes flowRight {
        0% { stroke-dashoffset: 24; opacity: 0.3; }
        50% { opacity: 1; }
        100% { stroke-dashoffset: 0; opacity: 0.3; }
      }
      @keyframes flowDown {
        0% { stroke-dashoffset: 24; opacity: 0.3; }
        50% { opacity: 1; }
        100% { stroke-dashoffset: 0; opacity: 0.3; }
      }
      @keyframes pulse {
        0%, 100% { opacity: 0.8; }
        50% { opacity: 1; }
      }
      .flow-h { animation: flowRight 2s linear infinite; }
      .flow-v { animation: flowDown 2s linear infinite; }
      .box { animation: pulse 3s ease-in-out infinite; }
    </style>
  </defs>

  <!-- Interface Layer (No borders) -->
  <g class="box">
    <rect x="40" y="60" width="180" height="50" rx="8" ry="8" fill="#1c1917" stroke="none" />
    <text x="130" y="90" text-anchor="middle" font-family="Inter, system-ui, sans-serif" font-size="13" font-weight="600" fill="#fecdd3">Nexus SDK</text>
  </g>

  <g class="box">
    <rect x="40" y="130" width="180" height="50" rx="8" ry="8" fill="#1c1917" stroke="none" />
    <text x="130" y="160" text-anchor="middle" font-family="Inter, system-ui, sans-serif" font-size="13" font-weight="600" fill="#fecdd3">FastAPI Backend</text>
  </g>

  <!-- Core Layer -->
  <g class="box">
    <rect x="320" y="90" width="200" height="60" rx="8" ry="8" fill="#1c1917" stroke="none" />
    <text x="420" y="125" text-anchor="middle" font-family="Inter, system-ui, sans-serif" font-size="13" font-weight="600" fill="#ffe4e6">DAG Engine</text>
  </g>

  <g class="box">
    <rect x="320" y="170" width="200" height="60" rx="8" ry="8" fill="#1c1917" stroke="none" />
    <text x="420" y="205" text-anchor="middle" font-family="Inter, system-ui, sans-serif" font-size="13" font-weight="600" fill="#ffe4e6">Guardrails &amp; Scoring</text>
  </g>

  <!-- Runtime Layer -->
  <g class="box">
    <rect x="640" y="60" width="220" height="50" rx="8" ry="8" fill="#1c1917" stroke="none" />
    <text x="750" y="90" text-anchor="middle" font-family="Inter, system-ui, sans-serif" font-size="13" font-weight="600" fill="#fecdd3">OpenVINO LLM</text>
  </g>

  <g class="box">
    <rect x="640" y="130" width="220" height="50" rx="8" ry="8" fill="#1c1917" stroke="none" />
    <text x="750" y="160" text-anchor="middle" font-family="Inter, system-ui, sans-serif" font-size="13" font-weight="600" fill="#fecdd3">Agent Tools</text>
  </g>

  <g class="box">
    <rect x="640" y="200" width="220" height="50" rx="8" ry="8" fill="#1c1917" stroke="none" />
    <text x="750" y="230" text-anchor="middle" font-family="Inter, system-ui, sans-serif" font-size="13" font-weight="600" fill="#fecdd3">Kafka Messaging</text>
  </g>

  <!-- Storage Layer -->
  <g class="box">
    <rect x="320" y="300" width="200" height="50" rx="8" ry="8" fill="#1c1917" stroke="none" />
    <text x="420" y="330" text-anchor="middle" font-family="Inter, system-ui, sans-serif" font-size="13" font-weight="600" fill="#e2e8f0">Vector Memory</text>
  </g>

  <!-- Monitoring Layer -->
  <g class="box">
    <rect x="640" y="300" width="220" height="50" rx="8" ry="8" fill="#1c1917" stroke="none" />
    <text x="750" y="330" text-anchor="middle" font-family="Inter, system-ui, sans-serif" font-size="13" font-weight="600" fill="#cbd5e1">Live Event Stream</text>
  </g>

  <g class="box">
    <rect x="640" y="370" width="220" height="50" rx="8" ry="8" fill="#1c1917" stroke="none" />
    <text x="750" y="400" text-anchor="middle" font-family="Inter, system-ui, sans-serif" font-size="13" font-weight="600" fill="#cbd5e1">Prometheus / Grafana</text>
  </g>

  <!-- Enhanced Flow Animations -->
  <g fill="none" stroke-width="3" stroke-dasharray="8 4">
    <!-- SDK -> DAG Engine -->
    <path class="flow-h" d="M220 85 H320" stroke="#DC143C" />
    <polygon points="320,85 310,80 310,90" fill="#DC143C" opacity="0.8"/>
    
    <!-- FastAPI -> Guardrails -->
    <path class="flow-h" d="M220 155 H320" stroke="#B22222" style="animation-delay: 0.3s;"/>
    <polygon points="320,155 310,150 310,160" fill="#B22222" opacity="0.8"/>
    
    <!-- DAG Engine -> Guardrails -->
    <path class="flow-v" d="M420 150 V170" stroke="#36454F" style="animation-delay: 0.6s;"/>
    <polygon points="420,170 415,160 425,160" fill="#36454F" opacity="0.8"/>
    
    <!-- DAG Engine -> OpenVINO -->
    <path class="flow-h" d="M520 120 H640" stroke="#DC143C" style="animation-delay: 0.9s;"/>
    <polygon points="640,120 630,115 630,125" fill="#DC143C" opacity="0.8"/>
    
    <!-- Guardrails -> Kafka -->
    <path class="flow-h" d="M520 200 H640" stroke="#8B0000" style="animation-delay: 1.2s;"/>
    <polygon points="640,200 630,195 630,205" fill="#8B0000" opacity="0.8"/>
    
    <!-- Kafka -> Live Stream -->
    <path class="flow-v" d="M750 250 V300" stroke="#36454F" style="animation-delay: 1.5s;"/>
    <polygon points="750,300 745,290 755,290" fill="#36454F" opacity="0.8"/>
    
    <!-- Guardrails -> Vector Memory -->
    <path class="flow-v" d="M420 230 V300" stroke="#808080" style="animation-delay: 1.8s;"/>
    <polygon points="420,300 415,290 425,290" fill="#808080" opacity="0.8"/>
  </g>
</svg>
