<svg width="920" height="520" viewBox="0 0 920 520" xmlns="http://www.w3.org/2000/svg">
  <!-- Solid Background -->
  <rect x="0" y="0" width="920" height="520" fill="#020617" rx="12" />

  <!-- Interface -->
  <!-- Nexus SDK -->
  <rect x="40" y="60" width="180" height="50" rx="8" ry="8" fill="#0f172a" stroke="#E11D2E" stroke-width="2" />
  <text x="130" y="90" text-anchor="middle" font-family="Inter, system-ui, sans-serif" font-size="13" font-weight="600" fill="#e5e7eb">Nexus SDK</text>

  <!-- FastAPI Backend -->
  <rect x="40" y="130" width="180" height="50" rx="8" ry="8" fill="#0f172a" stroke="#E11D2E" stroke-width="2" />
  <text x="130" y="160" text-anchor="middle" font-family="Inter, system-ui, sans-serif" font-size="13" font-weight="600" fill="#e5e7eb">FastAPI Backend</text>

  <!-- Core -->
  <!-- DAG Engine -->
  <rect x="320" y="90" width="200" height="60" rx="8" ry="8" fill="#0f172a" stroke="#E11D2E" stroke-width="2" />
  <text x="420" y="125" text-anchor="middle" font-family="Inter, system-ui, sans-serif" font-size="13" font-weight="600" fill="#e5e7eb">DAG Engine</text>

  <!-- Guardrails -->
  <rect x="320" y="170" width="200" height="60" rx="8" ry="8" fill="#0f172a" stroke="#E11D2E" stroke-width="2" />
  <text x="420" y="205" text-anchor="middle" font-family="Inter, system-ui, sans-serif" font-size="13" font-weight="600" fill="#e5e7eb">Guardrails &amp; Scoring</text>

  <!-- Runtime -->
  <!-- OpenVINO -->
  <rect x="640" y="60" width="220" height="50" rx="8" ry="8" fill="#0f172a" stroke="#0071C5" stroke-width="2" />
  <text x="750" y="90" text-anchor="middle" font-family="Inter, system-ui, sans-serif" font-size="13" font-weight="600" fill="#e5e7eb">OpenVINO LLM</text>

  <!-- Agent Tools -->
  <rect x="640" y="130" width="220" height="50" rx="8" ry="8" fill="#0f172a" stroke="#0071C5" stroke-width="2" />
  <text x="750" y="160" text-anchor="middle" font-family="Inter, system-ui, sans-serif" font-size="13" font-weight="600" fill="#e5e7eb">Agent Tools</text>

  <!-- Kafka -->
  <rect x="640" y="200" width="220" height="50" rx="8" ry="8" fill="#0f172a" stroke="#0071C5" stroke-width="2" />
  <text x="750" y="230" text-anchor="middle" font-family="Inter, system-ui, sans-serif" font-size="13" font-weight="600" fill="#e5e7eb">Kafka Messaging</text>

  <!-- Storage -->
  <!-- Vector Memory -->
  <rect x="320" y="300" width="200" height="50" rx="8" ry="8" fill="#0f172a" stroke="#64748b" stroke-width="2" />
  <text x="420" y="330" text-anchor="middle" font-family="Inter, system-ui, sans-serif" font-size="13" font-weight="600" fill="#e5e7eb">Vector Memory</text>

  <!-- Monitoring -->
  <!-- Live Stream -->
  <rect x="640" y="300" width="220" height="50" rx="8" ry="8" fill="#0f172a" stroke="#10b981" stroke-width="2" />
  <text x="750" y="330" text-anchor="middle" font-family="Inter, system-ui, sans-serif" font-size="13" font-weight="600" fill="#e5e7eb">Live Event Stream</text>

  <!-- Prometheus -->
  <rect x="640" y="370" width="220" height="50" rx="8" ry="8" fill="#0f172a" stroke="#10b981" stroke-width="2" />
  <text x="750" y="400" text-anchor="middle" font-family="Inter, system-ui, sans-serif" font-size="13" font-weight="600" fill="#e5e7eb">Prometheus / Grafana</text>

  <!-- Flows (Static Fallback + Animation) -->
  <style>
    .flow {
      animation: flow 1.6s linear infinite;
    }
    @keyframes flow {
      to { stroke-dashoffset: -24; }
    }
  </style>
  
  <g fill="none" stroke="#64748b" stroke-width="2" stroke-dasharray="6 6" class="flow">
    <path d="M220 85 H320" />
    <path d="M220 155 H320" />
    <path d="M420 150 V170" />
    <path d="M520 120 H640" />
    <path d="M520 200 H640" />
    <path d="M750 250 V300" />
    <path d="M520 230 V300" />
  </g>
</svg>
