<svg width="600" height="380" viewBox="0 0 600 380" fill="none" xmlns="http://www.w3.org/2000/svg">
  <style>
    @keyframes borderPulse {
      0% { stroke-opacity: 0.4; filter: drop-shadow(0 0 2px #FF4D6D); }
      50% { stroke-opacity: 1; filter: drop-shadow(0 0 6px #FF4D6D); }
      100% { stroke-opacity: 0.4; filter: drop-shadow(0 0 2px #FF4D6D); }
    }
    
    .glow-border {
      stroke: #FF4D6D;
      stroke-width: 2;
      animation: borderPulse 2s infinite ease-in-out;
    }

    .bold-white {
      font: bold 13px 'Segoe UI', Tahoma, sans-serif;
      fill: #FFFFFF;
    }

    .base-text { font: 13px 'Segoe UI', Tahoma, sans-serif; fill: #adbac7; }
    .header-text { font: bold 12px 'Segoe UI', Tahoma, sans-serif; fill: #6e7681; }
    .grid-line { stroke: #30363d; stroke-width: 1; }
  </style>

  <rect x="2" y="2" width="596" height="370" rx="8" fill="#0d1117" stroke="#30363d"/>

  <line x1="160" y1="2" x2="160" y2="372" class="grid-line" />
  <line x1="310" y1="2" x2="310" y2="372" class="grid-line" />
  <line x1="460" y1="2" x2="460" y2="372" class="grid-line" />
  
  <line x1="2" y1="50" x2="598" y2="50" class="grid-line" />

  <g class="header-text">
    <text x="25" y="32">METRIC</text>
    <text x="175" y="32">BGE (PYTORCH)</text>
    <text x="325" y="32">BGE (OPENVINO)</text>
    <text x="475" y="32">IMPACT</text>
  </g>

  <rect x="310" y="50" width="150" height="322" class="glow-border" fill="none" />

  <g class="base-text">
    <text x="25" y="85">Mean Latency</text>
    <text x="175" y="85">357.27 ms</text>
    <text x="325" y="85" class="bold-white">195.45 ms</text>
    <text x="475" y="85" fill="#3fb950" font-weight="bold">-45% Lower</text>
  </g>
  <line x1="2" y1="110" x2="598" y2="110" class="grid-line" />

  <g class="base-text">
    <text x="25" y="145">Throughput</text>
    <text x="175" y="145">2.80 pairs/s</text>
    <text x="325" y="145" class="bold-white">5.12 pairs/s</text>
    <text x="475" y="145" fill="#3fb950" font-weight="bold">+82.8% Gains</text>
  </g>
  <line x1="2" y1="170" x2="598" y2="170" class="grid-line" />

  <g class="base-text">
    <text x="25" y="205">P99 Latency</text>
    <text x="175" y="205">1096.50 ms</text>
    <text x="325" y="205" class="bold-white">802.30 ms</text>
    <text x="475" y="205" fill="#3fb950" font-weight="bold">-27% Reduction</text>
  </g>
  <line x1="2" y1="230" x2="598" y2="230" class="grid-line" />

  <g class="base-text">
    <text x="25" y="265">Memory (Peak)</text>
    <text x="175" y="265">1.95 GB</text>
    <text x="325" y="265" class="bold-white">3.04 GB</text>
    <text x="475" y="265" fill="#6e7681">-</text>
  </g>
  <line x1="2" y1="290" x2="598" y2="290" class="grid-line" />

  <g class="base-text">
    <text x="25" y="325">Warmup Time</text>
    <text x="175" y="325">2.94 s</text>
    <text x="325" y="325" class="bold-white">2.30 s</text>
    <text x="475" y="325" fill="#3fb950" font-weight="bold">22% Faster</text>
  </g>
  
  <line x1="2" y1="372" x2="598" y2="372" class="grid-line" />
</svg>
